<mxfile host="app.diagrams.net" modified="2023-03-23T15:19:50.524Z" agent="5.0 (Windows)" etag="aSErBsJaDV-pGmdTHJwN" version="21.0.10" type="github">
  <diagram id="C5RBs43oDa-KdzZeNtuy" name="Page-1">
    <mxGraphModel dx="2049" dy="1059" grid="1" gridSize="10" guides="1" tooltips="1" connect="1" arrows="1" fold="1" page="1" pageScale="1" pageWidth="827" pageHeight="1169" math="0" shadow="0">
      <root>
        <mxCell id="WIyWlLk6GJQsqaUBKTNV-0" />
        <mxCell id="WIyWlLk6GJQsqaUBKTNV-1" parent="WIyWlLk6GJQsqaUBKTNV-0" />
        <mxCell id="GmYlMenrYfb3XR74rmI5-86" value="" style="group" vertex="1" connectable="0" parent="WIyWlLk6GJQsqaUBKTNV-1">
          <mxGeometry x="150" y="130" width="1630" height="610" as="geometry" />
        </mxCell>
        <mxCell id="GmYlMenrYfb3XR74rmI5-47" value="" style="group" vertex="1" connectable="0" parent="GmYlMenrYfb3XR74rmI5-86">
          <mxGeometry width="940" height="610" as="geometry" />
        </mxCell>
        <mxCell id="GmYlMenrYfb3XR74rmI5-38" value="" style="group" vertex="1" connectable="0" parent="GmYlMenrYfb3XR74rmI5-47">
          <mxGeometry x="680" width="260" height="280" as="geometry" />
        </mxCell>
        <mxCell id="GmYlMenrYfb3XR74rmI5-39" value="&lt;b&gt;quicksight_all_users.csv&lt;/b&gt;" style="rounded=0;whiteSpace=wrap;html=1;" vertex="1" parent="GmYlMenrYfb3XR74rmI5-38">
          <mxGeometry width="260" height="40" as="geometry" />
        </mxCell>
        <mxCell id="GmYlMenrYfb3XR74rmI5-40" value="" style="rounded=0;whiteSpace=wrap;html=1;" vertex="1" parent="GmYlMenrYfb3XR74rmI5-38">
          <mxGeometry y="40" width="260" height="240" as="geometry" />
        </mxCell>
        <mxCell id="GmYlMenrYfb3XR74rmI5-41" value="&lt;div&gt;&lt;u&gt;user_id&lt;/u&gt;&lt;/div&gt;&lt;div&gt;&lt;br&gt;&lt;/div&gt;&lt;div&gt;user_name&lt;/div&gt;&lt;div&gt;&lt;br&gt;&lt;/div&gt;&lt;div&gt;user_arn&lt;/div&gt;&lt;div&gt;&lt;br&gt;&lt;/div&gt;&lt;div&gt;user_email&lt;/div&gt;&lt;div&gt;&lt;br&gt;&lt;/div&gt;&lt;div&gt;user_role&lt;/div&gt;&lt;div&gt;&lt;br&gt;&lt;/div&gt;&lt;div&gt;user_last_acitivity&lt;br&gt;&lt;/div&gt;&lt;div&gt;&lt;br&gt;&lt;/div&gt;" style="text;html=1;align=left;verticalAlign=middle;resizable=0;points=[];autosize=1;strokeColor=none;fillColor=none;" vertex="1" parent="GmYlMenrYfb3XR74rmI5-38">
          <mxGeometry x="40" y="51" width="120" height="190" as="geometry" />
        </mxCell>
        <mxCell id="GmYlMenrYfb3XR74rmI5-45" value="" style="group" vertex="1" connectable="0" parent="GmYlMenrYfb3XR74rmI5-47">
          <mxGeometry y="10" width="600" height="600" as="geometry" />
        </mxCell>
        <mxCell id="GmYlMenrYfb3XR74rmI5-44" value="" style="group" vertex="1" connectable="0" parent="GmYlMenrYfb3XR74rmI5-45">
          <mxGeometry width="600" height="600" as="geometry" />
        </mxCell>
        <mxCell id="GmYlMenrYfb3XR74rmI5-29" value="quicksight_analysis_deleted.csv" style="group" vertex="1" connectable="0" parent="GmYlMenrYfb3XR74rmI5-44">
          <mxGeometry x="340" y="320" width="260" height="280" as="geometry" />
        </mxCell>
        <mxCell id="GmYlMenrYfb3XR74rmI5-30" value="&lt;b&gt;quicksight_analysis.csv&lt;/b&gt;" style="rounded=0;whiteSpace=wrap;html=1;" vertex="1" parent="GmYlMenrYfb3XR74rmI5-29">
          <mxGeometry width="260" height="40" as="geometry" />
        </mxCell>
        <mxCell id="GmYlMenrYfb3XR74rmI5-31" value="" style="rounded=0;whiteSpace=wrap;html=1;" vertex="1" parent="GmYlMenrYfb3XR74rmI5-29">
          <mxGeometry y="40" width="260" height="240" as="geometry" />
        </mxCell>
        <mxCell id="GmYlMenrYfb3XR74rmI5-32" value="&lt;div&gt;&lt;u&gt;analysis_id&lt;/u&gt;&lt;/div&gt;&lt;div&gt;&lt;br&gt;&lt;/div&gt;&lt;div&gt;analysis_name&lt;span&gt;&lt;br&gt;&lt;/span&gt;&lt;/div&gt;&lt;div&gt;&lt;br&gt;&lt;/div&gt;&lt;div&gt;analysis_created_time&lt;br&gt;&lt;/div&gt;&lt;div&gt;&lt;br&gt;&lt;/div&gt;" style="text;html=1;align=left;verticalAlign=middle;resizable=0;points=[];autosize=1;strokeColor=none;fillColor=none;" vertex="1" parent="GmYlMenrYfb3XR74rmI5-29">
          <mxGeometry x="40" y="50" width="150" height="100" as="geometry" />
        </mxCell>
        <mxCell id="GmYlMenrYfb3XR74rmI5-34" value="quicksight_analysis_deleted.csv" style="group" vertex="1" connectable="0" parent="GmYlMenrYfb3XR74rmI5-44">
          <mxGeometry y="320" width="260" height="280" as="geometry" />
        </mxCell>
        <mxCell id="GmYlMenrYfb3XR74rmI5-35" value="&lt;b&gt;quicksight_analysis_deleted.csv&lt;/b&gt;" style="rounded=0;whiteSpace=wrap;html=1;" vertex="1" parent="GmYlMenrYfb3XR74rmI5-34">
          <mxGeometry width="260" height="40" as="geometry" />
        </mxCell>
        <mxCell id="GmYlMenrYfb3XR74rmI5-36" value="" style="rounded=0;whiteSpace=wrap;html=1;" vertex="1" parent="GmYlMenrYfb3XR74rmI5-34">
          <mxGeometry y="40" width="260" height="240" as="geometry" />
        </mxCell>
        <mxCell id="GmYlMenrYfb3XR74rmI5-37" value="&lt;div&gt;&lt;u&gt;analysis_id&lt;/u&gt;&lt;/div&gt;&lt;div&gt;&lt;br&gt;&lt;/div&gt;&lt;div&gt;&lt;span&gt;analysis_deleted_by&lt;br&gt;&lt;/span&gt;&lt;/div&gt;&lt;div&gt;&lt;br&gt;&lt;/div&gt;&lt;div&gt;analysis_deleted_date&lt;br&gt;&lt;/div&gt;&lt;div&gt;&lt;br&gt;&lt;/div&gt;" style="text;html=1;align=left;verticalAlign=middle;resizable=0;points=[];autosize=1;strokeColor=none;fillColor=none;" vertex="1" parent="GmYlMenrYfb3XR74rmI5-34">
          <mxGeometry x="40" y="50" width="150" height="100" as="geometry" />
        </mxCell>
        <mxCell id="GmYlMenrYfb3XR74rmI5-42" value="" style="endArrow=classic;html=1;rounded=0;entryX=1;entryY=0.083;entryDx=0;entryDy=0;entryPerimeter=0;" edge="1" parent="GmYlMenrYfb3XR74rmI5-44" target="GmYlMenrYfb3XR74rmI5-36">
          <mxGeometry width="50" height="50" relative="1" as="geometry">
            <mxPoint x="340" y="380" as="sourcePoint" />
            <mxPoint x="200" y="200" as="targetPoint" />
            <Array as="points">
              <mxPoint x="300" y="380" />
            </Array>
          </mxGeometry>
        </mxCell>
        <mxCell id="GmYlMenrYfb3XR74rmI5-28" value="" style="group" vertex="1" connectable="0" parent="GmYlMenrYfb3XR74rmI5-44">
          <mxGeometry x="340" y="-10" width="260" height="280" as="geometry" />
        </mxCell>
        <mxCell id="GmYlMenrYfb3XR74rmI5-25" value="&lt;b&gt;quicksight_analysis_all_permissions.csv &lt;/b&gt;" style="rounded=0;whiteSpace=wrap;html=1;" vertex="1" parent="GmYlMenrYfb3XR74rmI5-28">
          <mxGeometry width="260" height="40" as="geometry" />
        </mxCell>
        <mxCell id="GmYlMenrYfb3XR74rmI5-26" value="" style="rounded=0;whiteSpace=wrap;html=1;" vertex="1" parent="GmYlMenrYfb3XR74rmI5-28">
          <mxGeometry y="40" width="260" height="240" as="geometry" />
        </mxCell>
        <mxCell id="GmYlMenrYfb3XR74rmI5-27" value="&lt;div&gt;&lt;u&gt;analysis_id&lt;/u&gt;&lt;/div&gt;&lt;div&gt;&lt;br&gt;&lt;/div&gt;&lt;div&gt;&lt;u&gt;user_name&lt;/u&gt;&lt;/div&gt;&lt;div&gt;&lt;br&gt;&lt;/div&gt;&lt;div&gt;analysis_creator&lt;/div&gt;&lt;div&gt;&lt;br&gt;&lt;/div&gt;" style="text;html=1;align=left;verticalAlign=middle;resizable=0;points=[];autosize=1;strokeColor=none;fillColor=none;" vertex="1" parent="GmYlMenrYfb3XR74rmI5-28">
          <mxGeometry x="40" y="50" width="110" height="100" as="geometry" />
        </mxCell>
        <mxCell id="GmYlMenrYfb3XR74rmI5-43" value="" style="endArrow=classic;html=1;rounded=0;" edge="1" parent="GmYlMenrYfb3XR74rmI5-45">
          <mxGeometry width="50" height="50" relative="1" as="geometry">
            <mxPoint x="300" y="380" as="sourcePoint" />
            <mxPoint x="340" y="80" as="targetPoint" />
            <Array as="points">
              <mxPoint x="300" y="80" />
            </Array>
          </mxGeometry>
        </mxCell>
        <mxCell id="GmYlMenrYfb3XR74rmI5-48" value="" style="endArrow=classic;html=1;rounded=0;entryX=1;entryY=0.188;entryDx=0;entryDy=0;entryPerimeter=0;" edge="1" parent="GmYlMenrYfb3XR74rmI5-47">
          <mxGeometry width="50" height="50" relative="1" as="geometry">
            <mxPoint x="680" y="96" as="sourcePoint" />
            <mxPoint x="600" y="96.12" as="targetPoint" />
          </mxGeometry>
        </mxCell>
        <mxCell id="GmYlMenrYfb3XR74rmI5-81" value="" style="endArrow=classic;html=1;rounded=0;entryX=0;entryY=0.25;entryDx=0;entryDy=0;" edge="1" parent="GmYlMenrYfb3XR74rmI5-47" target="GmYlMenrYfb3XR74rmI5-75">
          <mxGeometry width="50" height="50" relative="1" as="geometry">
            <mxPoint x="600" y="390" as="sourcePoint" />
            <mxPoint x="655" y="749" as="targetPoint" />
            <Array as="points">
              <mxPoint x="620" y="390" />
              <mxPoint x="620" y="430" />
            </Array>
          </mxGeometry>
        </mxCell>
        <mxCell id="GmYlMenrYfb3XR74rmI5-54" value="" style="group" vertex="1" connectable="0" parent="GmYlMenrYfb3XR74rmI5-86">
          <mxGeometry x="680" y="10" width="600" height="600" as="geometry" />
        </mxCell>
        <mxCell id="GmYlMenrYfb3XR74rmI5-55" value="" style="group" vertex="1" connectable="0" parent="GmYlMenrYfb3XR74rmI5-54">
          <mxGeometry width="600" height="600" as="geometry" />
        </mxCell>
        <mxCell id="GmYlMenrYfb3XR74rmI5-56" value="quicksight_analysis_deleted.csv" style="group" vertex="1" connectable="0" parent="GmYlMenrYfb3XR74rmI5-55">
          <mxGeometry x="340" y="320" width="260" height="280" as="geometry" />
        </mxCell>
        <mxCell id="GmYlMenrYfb3XR74rmI5-57" value="&lt;b&gt;quicksight_dashboards.csv&lt;/b&gt;" style="rounded=0;whiteSpace=wrap;html=1;" vertex="1" parent="GmYlMenrYfb3XR74rmI5-56">
          <mxGeometry width="260" height="40" as="geometry" />
        </mxCell>
        <mxCell id="GmYlMenrYfb3XR74rmI5-58" value="" style="rounded=0;whiteSpace=wrap;html=1;" vertex="1" parent="GmYlMenrYfb3XR74rmI5-56">
          <mxGeometry y="40" width="260" height="240" as="geometry" />
        </mxCell>
        <mxCell id="GmYlMenrYfb3XR74rmI5-59" value="&lt;div&gt;&lt;u&gt;dashboard_id&lt;/u&gt;&lt;/div&gt;&lt;div&gt;&lt;br&gt;&lt;/div&gt;&lt;div&gt;dashboard_name&lt;span&gt;&lt;br&gt;&lt;/span&gt;&lt;/div&gt;&lt;div&gt;&lt;br&gt;&lt;/div&gt;&lt;div&gt;dashboard_created_time&lt;br&gt;&lt;/div&gt;&lt;div&gt;&lt;br&gt;&lt;/div&gt;" style="text;html=1;align=left;verticalAlign=middle;resizable=0;points=[];autosize=1;strokeColor=none;fillColor=none;" vertex="1" parent="GmYlMenrYfb3XR74rmI5-56">
          <mxGeometry x="40" y="50" width="160" height="100" as="geometry" />
        </mxCell>
        <mxCell id="GmYlMenrYfb3XR74rmI5-65" value="" style="group" vertex="1" connectable="0" parent="GmYlMenrYfb3XR74rmI5-55">
          <mxGeometry x="340" y="-10" width="260" height="280" as="geometry" />
        </mxCell>
        <mxCell id="GmYlMenrYfb3XR74rmI5-66" value="&lt;b&gt;quicksight_dashboards_all_permissions.csv &lt;/b&gt;" style="rounded=0;whiteSpace=wrap;html=1;" vertex="1" parent="GmYlMenrYfb3XR74rmI5-65">
          <mxGeometry width="260" height="40" as="geometry" />
        </mxCell>
        <mxCell id="GmYlMenrYfb3XR74rmI5-67" value="" style="rounded=0;whiteSpace=wrap;html=1;" vertex="1" parent="GmYlMenrYfb3XR74rmI5-65">
          <mxGeometry y="40" width="260" height="240" as="geometry" />
        </mxCell>
        <mxCell id="GmYlMenrYfb3XR74rmI5-68" value="&lt;div&gt;&lt;u&gt;dashboard_id&lt;/u&gt;&lt;/div&gt;&lt;div&gt;&lt;br&gt;&lt;/div&gt;&lt;div&gt;&lt;u&gt;user_name&lt;/u&gt;&lt;/div&gt;&lt;div&gt;&lt;br&gt;&lt;/div&gt;&lt;div&gt;dashboard_creator&lt;/div&gt;&lt;div&gt;&lt;br&gt;&lt;/div&gt;" style="text;html=1;align=left;verticalAlign=middle;resizable=0;points=[];autosize=1;strokeColor=none;fillColor=none;" vertex="1" parent="GmYlMenrYfb3XR74rmI5-65">
          <mxGeometry x="40" y="50" width="130" height="100" as="geometry" />
        </mxCell>
        <mxCell id="GmYlMenrYfb3XR74rmI5-73" value="quicksight_analysis_deleted.csv" style="group" vertex="1" connectable="0" parent="GmYlMenrYfb3XR74rmI5-55">
          <mxGeometry x="-3" y="320" width="260" height="280" as="geometry" />
        </mxCell>
        <mxCell id="GmYlMenrYfb3XR74rmI5-74" value="&lt;b&gt;quicksight_viewers.csv &lt;br&gt;&lt;/b&gt;" style="rounded=0;whiteSpace=wrap;html=1;" vertex="1" parent="GmYlMenrYfb3XR74rmI5-73">
          <mxGeometry width="260" height="40" as="geometry" />
        </mxCell>
        <mxCell id="GmYlMenrYfb3XR74rmI5-75" value="" style="rounded=0;whiteSpace=wrap;html=1;" vertex="1" parent="GmYlMenrYfb3XR74rmI5-73">
          <mxGeometry y="40" width="260" height="240" as="geometry" />
        </mxCell>
        <mxCell id="GmYlMenrYfb3XR74rmI5-76" value="&lt;div&gt;&lt;u&gt;viewer_dashboard_id&lt;/u&gt;&lt;/div&gt;&lt;div&gt;&lt;br&gt;&lt;/div&gt;&lt;div&gt;&lt;u&gt;viewer_analysis_id&lt;/u&gt;&lt;/div&gt;&lt;div&gt;&lt;u&gt;&lt;br&gt;&lt;/u&gt;&lt;/div&gt;&lt;div&gt;&lt;u&gt;user_name&lt;/u&gt;&lt;u&gt;&lt;/u&gt;&lt;/div&gt;&lt;div&gt;&lt;u&gt;&lt;br&gt;&lt;/u&gt;&lt;/div&gt;&lt;div&gt;viewer_date&lt;/div&gt;&lt;div&gt;&lt;br&gt;&lt;/div&gt;&lt;div&gt;viewer_type&lt;br&gt;&lt;/div&gt;&lt;div&gt;&lt;br&gt;&lt;/div&gt;" style="text;html=1;align=left;verticalAlign=middle;resizable=0;points=[];autosize=1;strokeColor=none;fillColor=none;" vertex="1" parent="GmYlMenrYfb3XR74rmI5-73">
          <mxGeometry x="40" y="50" width="140" height="160" as="geometry" />
        </mxCell>
        <mxCell id="GmYlMenrYfb3XR74rmI5-83" value="" style="endArrow=classic;html=1;rounded=0;exitX=-0.002;exitY=0.107;exitDx=0;exitDy=0;exitPerimeter=0;" edge="1" parent="GmYlMenrYfb3XR74rmI5-55" source="GmYlMenrYfb3XR74rmI5-58">
          <mxGeometry width="50" height="50" relative="1" as="geometry">
            <mxPoint x="300" y="430" as="sourcePoint" />
            <mxPoint x="260" y="386" as="targetPoint" />
          </mxGeometry>
        </mxCell>
        <mxCell id="GmYlMenrYfb3XR74rmI5-60" value="quicksight_analysis_deleted.csv" style="group" vertex="1" connectable="0" parent="GmYlMenrYfb3XR74rmI5-86">
          <mxGeometry x="1370" y="330" width="260" height="280" as="geometry" />
        </mxCell>
        <mxCell id="GmYlMenrYfb3XR74rmI5-61" value="&lt;b&gt;quicksight_dashboards_deleted.csv&lt;/b&gt;" style="rounded=0;whiteSpace=wrap;html=1;" vertex="1" parent="GmYlMenrYfb3XR74rmI5-60">
          <mxGeometry width="260" height="40" as="geometry" />
        </mxCell>
        <mxCell id="GmYlMenrYfb3XR74rmI5-62" value="" style="rounded=0;whiteSpace=wrap;html=1;" vertex="1" parent="GmYlMenrYfb3XR74rmI5-60">
          <mxGeometry y="40" width="260" height="240" as="geometry" />
        </mxCell>
        <mxCell id="GmYlMenrYfb3XR74rmI5-63" value="&lt;div&gt;&lt;u&gt;dashboard_id&lt;/u&gt;&lt;/div&gt;&lt;div&gt;&lt;br&gt;&lt;/div&gt;&lt;div&gt;&lt;span&gt;&lt;span&gt;&lt;/span&gt;dashboard_deleted_by&lt;br&gt;&lt;/span&gt;&lt;/div&gt;&lt;div&gt;&lt;br&gt;&lt;/div&gt;&lt;div&gt;dashboard_deleted_date&lt;br&gt;&lt;/div&gt;&lt;div&gt;&lt;br&gt;&lt;/div&gt;" style="text;html=1;align=left;verticalAlign=middle;resizable=0;points=[];autosize=1;strokeColor=none;fillColor=none;" vertex="1" parent="GmYlMenrYfb3XR74rmI5-60">
          <mxGeometry x="40" y="50" width="160" height="100" as="geometry" />
        </mxCell>
        <mxCell id="GmYlMenrYfb3XR74rmI5-77" value="" style="endArrow=classic;html=1;rounded=0;exitX=1.003;exitY=0.207;exitDx=0;exitDy=0;exitPerimeter=0;entryX=-0.006;entryY=0.207;entryDx=0;entryDy=0;entryPerimeter=0;" edge="1" parent="GmYlMenrYfb3XR74rmI5-86">
          <mxGeometry width="50" height="50" relative="1" as="geometry">
            <mxPoint x="940.7799999999997" y="92.67999999999995" as="sourcePoint" />
            <mxPoint x="1018.44" y="92.67999999999995" as="targetPoint" />
          </mxGeometry>
        </mxCell>
        <mxCell id="GmYlMenrYfb3XR74rmI5-78" value="" style="endArrow=classic;html=1;rounded=0;exitX=1.003;exitY=0.207;exitDx=0;exitDy=0;exitPerimeter=0;entryX=-0.003;entryY=0.127;entryDx=0;entryDy=0;entryPerimeter=0;" edge="1" parent="GmYlMenrYfb3XR74rmI5-86" target="GmYlMenrYfb3XR74rmI5-62">
          <mxGeometry width="50" height="50" relative="1" as="geometry">
            <mxPoint x="1280" y="400" as="sourcePoint" />
            <mxPoint x="1357" y="400" as="targetPoint" />
          </mxGeometry>
        </mxCell>
        <mxCell id="GmYlMenrYfb3XR74rmI5-79" value="" style="endArrow=classic;html=1;rounded=0;entryX=1.003;entryY=0.12;entryDx=0;entryDy=0;entryPerimeter=0;" edge="1" parent="GmYlMenrYfb3XR74rmI5-86" target="GmYlMenrYfb3XR74rmI5-67">
          <mxGeometry width="50" height="50" relative="1" as="geometry">
            <mxPoint x="1330" y="400" as="sourcePoint" />
            <mxPoint x="1379" y="410" as="targetPoint" />
            <Array as="points">
              <mxPoint x="1330" y="69" />
            </Array>
          </mxGeometry>
        </mxCell>
        <mxCell id="GmYlMenrYfb3XR74rmI5-80" value="" style="endArrow=classic;html=1;rounded=0;entryX=-0.007;entryY=0.357;entryDx=0;entryDy=0;entryPerimeter=0;" edge="1" parent="GmYlMenrYfb3XR74rmI5-86" target="GmYlMenrYfb3XR74rmI5-75">
          <mxGeometry width="50" height="50" relative="1" as="geometry">
            <mxPoint x="640" y="97" as="sourcePoint" />
            <mxPoint x="670" y="397" as="targetPoint" />
            <Array as="points">
              <mxPoint x="640" y="456" />
            </Array>
          </mxGeometry>
        </mxCell>
      </root>
    </mxGraphModel>
  </diagram>
</mxfile>
